<svg width="57" height="42" viewBox="0 0 57 42" fill="none" xmlns="http://www.w3.org/2000/svg">
<path d="M3.54532 41.3858C3.29296 41.3858 3.04061 41.2596 2.78825 41.0073C2.53589 40.7549 2.40972 40.5026 2.40972 40.2502C2.40972 39.8717 2.59898 39.4931 2.97752 39.1146C5.50109 36.9696 7.39376 34.8245 8.65555 32.6795C9.91733 30.5345 10.5482 28.5156 10.5482 26.6229C10.5482 24.6041 9.60188 23.0899 7.70921 22.0805C5.438 20.9449 3.60841 19.62 2.22045 18.1059C0.958664 16.5918 0.327773 14.5729 0.327773 12.0493C0.327773 8.89487 1.40029 6.24513 3.54532 4.10009C5.81653 1.82888 8.46628 0.693275 11.4946 0.693275C14.649 0.693275 17.3619 1.82888 19.6331 4.10009C21.9043 6.3713 23.0399 9.21032 23.0399 12.6171C23.0399 19.0522 21.1472 24.7933 17.3619 29.8405C13.5765 34.8876 9.22335 38.673 4.30239 41.1965L3.54532 41.3858ZM37.0457 41.3858C36.7933 41.3858 36.541 41.2596 36.2886 41.0073C36.0363 40.7549 35.9101 40.4395 35.9101 40.0609C35.9101 39.6824 36.0363 39.3669 36.2886 39.1146C38.8122 36.9696 40.7048 34.8245 41.9666 32.6795C43.2284 30.4083 43.8593 28.3894 43.8593 26.6229C43.8593 24.4779 42.913 22.9638 41.0203 22.0805C38.7491 20.9449 36.9826 19.62 35.7208 18.1059C34.459 16.5918 33.8281 14.5729 33.8281 12.0493C33.8281 8.89487 34.9006 6.24513 37.0457 4.10009C39.1907 1.82888 41.8405 0.693275 44.9949 0.693275C48.0232 0.693275 50.6729 1.82888 52.9442 4.10009C55.2154 6.3713 56.351 9.21032 56.351 12.6171C56.351 19.0522 54.4583 24.7933 50.6729 29.8405C46.8876 34.7614 42.5975 38.5468 37.8027 41.1965L37.0457 41.3858Z" fill="#A6B7C3"/>
</svg>
