<svg width="246" height="311" viewBox="0 0 246 311" fill="none" xmlns="http://www.w3.org/2000/svg">
<g opacity="0.04">
<g opacity="0.6">
<mask id="mask0_2060_2260" style="mask-type:luminance" maskUnits="userSpaceOnUse" x="0" y="0" width="319" height="311">
<path d="M318.667 0H0V310.667H318.667V0Z" fill="white"/>
</mask>
<g mask="url(#mask0_2060_2260)">
<mask id="mask1_2060_2260" style="mask-type:luminance" maskUnits="userSpaceOnUse" x="0" y="65" width="319" height="231">
<path d="M0.265625 65.3334H318.349V296H0.265625V65.3334Z" fill="white"/>
</mask>
<g mask="url(#mask1_2060_2260)">
<path d="M93.5159 202.365C92.8961 205.068 90.6773 207.281 89.2242 210.396C86.5263 216.281 84.4482 222.375 82.9273 228.604C79.9482 240.927 79.3232 253.875 81.193 266.406C82.6461 276.307 86.2503 286.76 94.7659 291.953C101.964 296.318 111.032 295.901 119.271 294.099C142.953 288.906 163.584 273.885 187.328 269.177C204.433 265.781 222.157 267.927 239.464 265.646C260.026 262.943 279.688 253.875 295.058 240.026C304.198 231.792 312.021 221.615 315.552 209.771C318.599 199.734 318.459 188.932 317.422 178.479C316.037 165.047 313.125 151.615 307.657 139.224C293.255 106.615 261.823 83.5625 227.693 73.1042C199.584 64.4531 169.193 63.4844 140.599 70.3386C124.672 74.1459 109.235 80.3073 93.0315 82.9375C70.0471 86.6771 46.37 83.1459 23.245 86.1927C15.0784 87.2292 6.00547 89.8594 2.19817 97.1979C-1.26537 103.917 1.02109 112.224 4.48463 119.005C14.9378 139.568 34.3909 154.177 54.6773 165.12C62.3648 169.203 70.3232 173.01 76.8336 178.828C81.0575 182.635 83.9638 187.479 87.9117 191.563C89.6409 193.365 91.37 195.167 92.5471 197.38C93.7242 199.25 93.8648 200.844 93.5159 202.365Z" fill="#16A9B1"/>
</g>
<path d="M95.5936 142.688C92.5467 144.557 88.7394 145.109 85.4842 146.703C81.6769 148.5 78.0103 150.578 74.4113 152.865C68.3176 156.74 62.6405 161.307 57.5155 166.365C47.6144 176.125 37.229 189.208 35.5676 203.474C33.8384 218.359 44.7759 228.469 56.9634 234.698C70.5311 241.62 85.3488 245.151 99.7499 249.792C107.224 252.214 114.635 254.984 121.557 258.859C128.271 262.599 134.432 267.24 140.318 272.151C152.229 281.917 163.651 292.021 177.776 298.599C203.807 310.646 240.083 314.526 264.458 296.521C276.364 287.729 285.364 274.714 292.562 261.906C300.042 248.542 305.026 234.073 306.687 218.776C309.875 188.932 300.734 158.401 284.812 133.271C269.646 109.313 248.323 89.2396 223.469 75.5313C209.208 67.7032 193.698 62.375 179.573 54.2032C165.937 46.3802 154.443 35.6511 142.604 25.4063C137.068 20.625 131.39 15.9167 125.432 11.625C119.62 7.47399 113.25 3.31774 105.979 2.28128C91.3697 0.13545 83.8957 13.0782 81.1926 25.474C77.8019 41.1875 79.3228 57.4584 83.2707 72.8959C85.2811 80.8594 88.0467 88.6146 91.0259 96.2969C93.9999 103.984 97.1874 111.948 97.3228 120.255C97.3957 124.13 96.9113 128.01 97.0467 131.953C97.1197 135.625 98.1561 140.469 94.9738 143.099C92.203 145.318 96.1509 149.26 98.8488 146.979C104.25 142.615 102.448 134.656 102.588 128.63C102.797 120.948 102.724 113.953 100.51 106.474C98.2967 99.0677 95.1092 92.0052 92.6197 84.7396C90.1249 77.5365 88.1197 70.198 86.6613 62.7188C84.0311 48.599 83.3384 32.1875 88.9478 18.6875C91.578 12.3177 96.4947 6.9167 103.974 7.5417C111.104 8.09378 117.474 12.6667 123.078 16.75C134.922 25.3334 145.375 35.5834 156.661 44.7917C168.015 54.0677 180.265 61.3386 193.63 67.4271C206.922 73.5209 220.286 79.3386 232.542 87.4375C243.963 95.0521 254.417 104.125 263.557 114.302C282.458 135.276 296.026 161.38 300.391 189.417C302.536 203.333 302.187 217.802 298.797 231.51C295.266 245.984 288.271 259.276 279.828 271.458C271.172 283.922 260.719 294.792 245.901 299.5C231.984 303.932 216.614 303.724 202.422 300.818C188.161 297.839 174.729 291.885 162.958 283.37C151.052 274.781 140.734 264.193 128.271 256.37C116.224 248.823 102.515 244.734 89.0884 240.651C75.6561 236.635 60.703 232.62 49.6926 223.552C44.3592 219.12 40.6249 213.302 40.7603 206.172C40.9009 198.698 44.5676 191.703 48.5155 185.609C56.3384 173.703 66.9321 163.594 79.1144 156.188C82.2342 154.318 85.4165 152.589 88.6717 151.063C91.7863 149.609 95.3176 149.193 98.2238 147.323C101.411 145.594 98.6405 140.818 95.5936 142.688Z" fill="white"/>
</g>
</g>
</g>
</svg>
