<svg width="639" height="332" viewBox="0 0 639 332" fill="none" xmlns="http://www.w3.org/2000/svg">
<g opacity="0.2">
<g opacity="0.4">
<mask id="mask0_9110_2947" style="mask-type:luminance" maskUnits="userSpaceOnUse" x="0" y="301" width="335" height="2">
<path d="M0 301.079H335V302.947H0V301.079Z" fill="white"/>
</mask>
<g mask="url(#mask0_9110_2947)">
<path d="M0 301.119H335V302.491H0V301.119Z" fill="#393939"/>
</g>
<mask id="mask1_9110_2947" style="mask-type:luminance" maskUnits="userSpaceOnUse" x="0" y="270" width="335" height="4">
<path d="M0 270.261H335V273.062H0V270.261Z" fill="white"/>
</mask>
<g mask="url(#mask1_9110_2947)">
<path d="M0 270.942H335V272.314H0V270.942Z" fill="#393939"/>
</g>
<mask id="mask2_9110_2947" style="mask-type:luminance" maskUnits="userSpaceOnUse" x="0" y="240" width="335" height="3">
<path d="M0 240.376H335V242.244H0V240.376Z" fill="white"/>
</mask>
<g mask="url(#mask2_9110_2947)">
<path d="M0 240.766H335V242.137H0V240.766Z" fill="#393939"/>
</g>
<mask id="mask3_9110_2947" style="mask-type:luminance" maskUnits="userSpaceOnUse" x="0" y="210" width="335" height="3">
<path d="M0 210.491H335V212.359H0V210.491Z" fill="white"/>
</mask>
<g mask="url(#mask3_9110_2947)">
<path d="M0 210.589H335V211.961H0V210.589Z" fill="#393939"/>
</g>
<mask id="mask4_9110_2947" style="mask-type:luminance" maskUnits="userSpaceOnUse" x="0" y="179" width="335" height="4">
<path d="M0 179.673H335V182.475H0V179.673Z" fill="white"/>
</mask>
<g mask="url(#mask4_9110_2947)">
<path d="M0 180.396H335V181.767H0V180.396Z" fill="#393939"/>
</g>
<mask id="mask5_9110_2947" style="mask-type:luminance" maskUnits="userSpaceOnUse" x="0" y="149" width="335" height="3">
<path d="M0 149.788H335V151.656H0V149.788Z" fill="white"/>
</mask>
<g mask="url(#mask5_9110_2947)">
<path d="M0 150.219H335V151.59H0V150.219Z" fill="#393939"/>
</g>
<mask id="mask6_9110_2947" style="mask-type:luminance" maskUnits="userSpaceOnUse" x="0" y="119" width="335" height="3">
<path d="M0 119.903H335V121.771H0V119.903Z" fill="white"/>
</mask>
<g mask="url(#mask6_9110_2947)">
<path d="M0 120.038H335V121.41H0V120.038Z" fill="#393939"/>
</g>
<mask id="mask7_9110_2947" style="mask-type:luminance" maskUnits="userSpaceOnUse" x="0" y="89" width="335" height="3">
<path d="M0 89.085H335V91.8866H0V89.085Z" fill="white"/>
</mask>
<g mask="url(#mask7_9110_2947)">
<path d="M0 89.8438H335V91.2154H0V89.8438Z" fill="#393939"/>
</g>
<mask id="mask8_9110_2947" style="mask-type:luminance" maskUnits="userSpaceOnUse" x="0" y="59" width="335" height="3">
<path d="M0 59.2002H335V61.068H0V59.2002Z" fill="white"/>
</mask>
<g mask="url(#mask8_9110_2947)">
<path d="M0 59.667H335V61.0387H0V59.667Z" fill="#393939"/>
</g>
<mask id="mask9_9110_2947" style="mask-type:luminance" maskUnits="userSpaceOnUse" x="0" y="29" width="335" height="3">
<path d="M0 29.3164H335V31.1842H0V29.3164Z" fill="white"/>
</mask>
<g mask="url(#mask9_9110_2947)">
<path d="M0 29.4912H335V30.8629H0V29.4912Z" fill="#393939"/>
</g>
<mask id="mask10_9110_2947" style="mask-type:luminance" maskUnits="userSpaceOnUse" x="303" y="0" width="3" height="332">
<path d="M303.805 0H305.689V332H303.805V0Z" fill="white"/>
</mask>
<g mask="url(#mask10_9110_2947)">
<path d="M303.844 0H305.228V332H303.844V0Z" fill="#393939"/>
</g>
<mask id="mask11_9110_2947" style="mask-type:luminance" maskUnits="userSpaceOnUse" x="272" y="0" width="4" height="332">
<path d="M272.699 0H275.526V332H272.699V0Z" fill="white"/>
</mask>
<g mask="url(#mask11_9110_2947)">
<path d="M273.391 0H274.775V332H273.391V0Z" fill="#393939"/>
</g>
<mask id="mask12_9110_2947" style="mask-type:luminance" maskUnits="userSpaceOnUse" x="242" y="0" width="3" height="332">
<path d="M242.547 0H244.432V332H242.547V0Z" fill="white"/>
</mask>
<g mask="url(#mask12_9110_2947)">
<path d="M242.941 0H244.325V332H242.941V0Z" fill="#393939"/>
</g>
<mask id="mask13_9110_2947" style="mask-type:luminance" maskUnits="userSpaceOnUse" x="212" y="0" width="3" height="332">
<path d="M212.398 0H214.283V332H212.398V0Z" fill="white"/>
</mask>
<g mask="url(#mask13_9110_2947)">
<path d="M212.496 0H213.88V332H212.496V0Z" fill="#393939"/>
</g>
<mask id="mask14_9110_2947" style="mask-type:luminance" maskUnits="userSpaceOnUse" x="181" y="0" width="4" height="332">
<path d="M181.293 0H184.12V332H181.293V0Z" fill="white"/>
</mask>
<g mask="url(#mask14_9110_2947)">
<path d="M182.02 0H183.404V332H182.02V0Z" fill="#393939"/>
</g>
<mask id="mask15_9110_2947" style="mask-type:luminance" maskUnits="userSpaceOnUse" x="151" y="0" width="3" height="332">
<path d="M151.141 0H153.025V332H151.141V0Z" fill="white"/>
</mask>
<g mask="url(#mask15_9110_2947)">
<path d="M151.574 0H152.958V332H151.574V0Z" fill="#393939"/>
</g>
<mask id="mask16_9110_2947" style="mask-type:luminance" maskUnits="userSpaceOnUse" x="120" y="0" width="3" height="332">
<path d="M120.988 0H122.873V332H120.988V0Z" fill="white"/>
</mask>
<g mask="url(#mask16_9110_2947)">
<path d="M121.125 0H122.509V332H121.125V0Z" fill="#393939"/>
</g>
<mask id="mask17_9110_2947" style="mask-type:luminance" maskUnits="userSpaceOnUse" x="89" y="0" width="4" height="332">
<path d="M89.8867 0H92.7137V332H89.8867V0Z" fill="white"/>
</mask>
<g mask="url(#mask17_9110_2947)">
<path d="M90.6523 0H92.0364V332H90.6523V0Z" fill="#393939"/>
</g>
<mask id="mask18_9110_2947" style="mask-type:luminance" maskUnits="userSpaceOnUse" x="59" y="0" width="3" height="332">
<path d="M59.7383 0H61.623V332H59.7383V0Z" fill="white"/>
</mask>
<g mask="url(#mask18_9110_2947)">
<path d="M60.207 0H61.5911V332H60.207V0Z" fill="#393939"/>
</g>
<mask id="mask19_9110_2947" style="mask-type:luminance" maskUnits="userSpaceOnUse" x="29" y="0" width="3" height="332">
<path d="M29.582 0H31.4667V332H29.582V0Z" fill="white"/>
</mask>
<g mask="url(#mask19_9110_2947)">
<path d="M29.7578 0H31.1419V332H29.7578V0Z" fill="#393939"/>
</g>
</g>
<g opacity="0.4">
<mask id="mask20_9110_2947" style="mask-type:luminance" maskUnits="userSpaceOnUse" x="304" y="301" width="335" height="2">
<path d="M304 301.079H639V302.947H304V301.079Z" fill="white"/>
</mask>
<g mask="url(#mask20_9110_2947)">
<path d="M304 301.119H639V302.491H304V301.119Z" fill="#393939"/>
</g>
<mask id="mask21_9110_2947" style="mask-type:luminance" maskUnits="userSpaceOnUse" x="304" y="270" width="335" height="4">
<path d="M304 270.261H639V273.062H304V270.261Z" fill="white"/>
</mask>
<g mask="url(#mask21_9110_2947)">
<path d="M304 270.942H639V272.314H304V270.942Z" fill="#393939"/>
</g>
<mask id="mask22_9110_2947" style="mask-type:luminance" maskUnits="userSpaceOnUse" x="304" y="240" width="335" height="3">
<path d="M304 240.376H639V242.244H304V240.376Z" fill="white"/>
</mask>
<g mask="url(#mask22_9110_2947)">
<path d="M304 240.766H639V242.137H304V240.766Z" fill="#393939"/>
</g>
<mask id="mask23_9110_2947" style="mask-type:luminance" maskUnits="userSpaceOnUse" x="304" y="210" width="335" height="3">
<path d="M304 210.491H639V212.359H304V210.491Z" fill="white"/>
</mask>
<g mask="url(#mask23_9110_2947)">
<path d="M304 210.589H639V211.961H304V210.589Z" fill="#393939"/>
</g>
<mask id="mask24_9110_2947" style="mask-type:luminance" maskUnits="userSpaceOnUse" x="304" y="179" width="335" height="4">
<path d="M304 179.673H639V182.475H304V179.673Z" fill="white"/>
</mask>
<g mask="url(#mask24_9110_2947)">
<path d="M304 180.396H639V181.767H304V180.396Z" fill="#393939"/>
</g>
<mask id="mask25_9110_2947" style="mask-type:luminance" maskUnits="userSpaceOnUse" x="304" y="149" width="335" height="3">
<path d="M304 149.788H639V151.656H304V149.788Z" fill="white"/>
</mask>
<g mask="url(#mask25_9110_2947)">
<path d="M304 150.219H639V151.59H304V150.219Z" fill="#393939"/>
</g>
<mask id="mask26_9110_2947" style="mask-type:luminance" maskUnits="userSpaceOnUse" x="304" y="119" width="335" height="3">
<path d="M304 119.903H639V121.771H304V119.903Z" fill="white"/>
</mask>
<g mask="url(#mask26_9110_2947)">
<path d="M304 120.038H639V121.41H304V120.038Z" fill="#393939"/>
</g>
<mask id="mask27_9110_2947" style="mask-type:luminance" maskUnits="userSpaceOnUse" x="304" y="89" width="335" height="3">
<path d="M304 89.085H639V91.8866H304V89.085Z" fill="white"/>
</mask>
<g mask="url(#mask27_9110_2947)">
<path d="M304 89.8438H639V91.2154H304V89.8438Z" fill="#393939"/>
</g>
<mask id="mask28_9110_2947" style="mask-type:luminance" maskUnits="userSpaceOnUse" x="304" y="59" width="335" height="3">
<path d="M304 59.2002H639V61.068H304V59.2002Z" fill="white"/>
</mask>
<g mask="url(#mask28_9110_2947)">
<path d="M304 59.667H639V61.0387H304V59.667Z" fill="#393939"/>
</g>
<mask id="mask29_9110_2947" style="mask-type:luminance" maskUnits="userSpaceOnUse" x="304" y="29" width="335" height="3">
<path d="M304 29.3164H639V31.1842H304V29.3164Z" fill="white"/>
</mask>
<g mask="url(#mask29_9110_2947)">
<path d="M304 29.4912H639V30.8629H304V29.4912Z" fill="#393939"/>
</g>
<mask id="mask30_9110_2947" style="mask-type:luminance" maskUnits="userSpaceOnUse" x="607" y="0" width="3" height="332">
<path d="M607.805 0H609.689V332H607.805V0Z" fill="white"/>
</mask>
<g mask="url(#mask30_9110_2947)">
<path d="M607.844 0H609.228V332H607.844V0Z" fill="#393939"/>
</g>
<mask id="mask31_9110_2947" style="mask-type:luminance" maskUnits="userSpaceOnUse" x="576" y="0" width="4" height="332">
<path d="M576.699 0H579.526V332H576.699V0Z" fill="white"/>
</mask>
<g mask="url(#mask31_9110_2947)">
<path d="M577.391 0H578.775V332H577.391V0Z" fill="#393939"/>
</g>
<mask id="mask32_9110_2947" style="mask-type:luminance" maskUnits="userSpaceOnUse" x="546" y="0" width="3" height="332">
<path d="M546.547 0H548.432V332H546.547V0Z" fill="white"/>
</mask>
<g mask="url(#mask32_9110_2947)">
<path d="M546.941 0H548.325V332H546.941V0Z" fill="#393939"/>
</g>
<mask id="mask33_9110_2947" style="mask-type:luminance" maskUnits="userSpaceOnUse" x="516" y="0" width="3" height="332">
<path d="M516.398 0H518.283V332H516.398V0Z" fill="white"/>
</mask>
<g mask="url(#mask33_9110_2947)">
<path d="M516.496 0H517.88V332H516.496V0Z" fill="#393939"/>
</g>
<mask id="mask34_9110_2947" style="mask-type:luminance" maskUnits="userSpaceOnUse" x="485" y="0" width="4" height="332">
<path d="M485.293 0H488.12V332H485.293V0Z" fill="white"/>
</mask>
<g mask="url(#mask34_9110_2947)">
<path d="M486.02 0H487.404V332H486.02V0Z" fill="#393939"/>
</g>
<mask id="mask35_9110_2947" style="mask-type:luminance" maskUnits="userSpaceOnUse" x="455" y="0" width="3" height="332">
<path d="M455.141 0H457.025V332H455.141V0Z" fill="white"/>
</mask>
<g mask="url(#mask35_9110_2947)">
<path d="M455.574 0H456.958V332H455.574V0Z" fill="#393939"/>
</g>
<mask id="mask36_9110_2947" style="mask-type:luminance" maskUnits="userSpaceOnUse" x="424" y="0" width="3" height="332">
<path d="M424.988 0H426.873V332H424.988V0Z" fill="white"/>
</mask>
<g mask="url(#mask36_9110_2947)">
<path d="M425.125 0H426.509V332H425.125V0Z" fill="#393939"/>
</g>
<mask id="mask37_9110_2947" style="mask-type:luminance" maskUnits="userSpaceOnUse" x="393" y="0" width="4" height="332">
<path d="M393.887 0H396.714V332H393.887V0Z" fill="white"/>
</mask>
<g mask="url(#mask37_9110_2947)">
<path d="M394.652 0H396.036V332H394.652V0Z" fill="#393939"/>
</g>
<mask id="mask38_9110_2947" style="mask-type:luminance" maskUnits="userSpaceOnUse" x="363" y="0" width="3" height="332">
<path d="M363.738 0H365.623V332H363.738V0Z" fill="white"/>
</mask>
<g mask="url(#mask38_9110_2947)">
<path d="M364.207 0H365.591V332H364.207V0Z" fill="#393939"/>
</g>
<mask id="mask39_9110_2947" style="mask-type:luminance" maskUnits="userSpaceOnUse" x="333" y="0" width="3" height="332">
<path d="M333.582 0H335.467V332H333.582V0Z" fill="white"/>
</mask>
<g mask="url(#mask39_9110_2947)">
<path d="M333.758 0H335.142V332H333.758V0Z" fill="#393939"/>
</g>
</g>
</g>
</svg>
